<?xml version="1.0" standalone="no"?>
<!DOCTYPE svg PUBLIC "-//W3C//DTD SVG 20010904//EN"
 "http://www.w3.org/TR/2001/REC-SVG-20010904/DTD/svg10.dtd">
<svg version="1.0" xmlns="http://www.w3.org/2000/svg"
 width="400.000000pt" height="400.000000pt" viewBox="0 0 400.000000 400.000000"
 preserveAspectRatio="xMidYMid meet">
<metadata>
Created by potrace 1.11, written by Peter Selinger 2001-2013
</metadata>
<g transform="translate(0.000000,400.000000) scale(0.100000,-0.100000)"
fill="#000000" stroke="none">
<path d="M73 3744 c-21 -9 -15 -39 11 -63 19 -18 23 -30 19 -56 -5 -30 -1 -36
63 -88 38 -31 85 -76 104 -100 19 -25 64 -65 100 -91 36 -26 94 -74 130 -107
36 -33 84 -74 107 -90 24 -17 43 -33 43 -37 0 -5 21 -24 48 -44 26 -20 67 -55
92 -77 25 -23 53 -43 63 -47 9 -3 17 -13 17 -23 0 -19 44 -57 126 -109 27 -17
68 -52 90 -77 21 -25 62 -60 91 -77 28 -17 61 -44 73 -60 11 -15 25 -28 31
-28 11 0 27 -12 70 -52 16 -14 29 -24 29 -22 0 3 12 -7 27 -21 33 -30 54 -31
111 -5 50 22 126 38 102 21 -8 -6 -46 -21 -85 -33 -38 -11 -73 -26 -77 -31 -3
-6 14 -23 38 -39 24 -15 44 -32 44 -38 0 -17 39 -11 90 15 27 14 57 25 67 25
10 1 47 18 83 40 35 22 66 38 68 36 10 -10 -28 -48 -73 -73 -52 -29 -67 -33
-75 -22 -6 8 -120 -43 -120 -54 0 -4 13 -16 29 -25 17 -9 35 -27 40 -40 12
-25 23 -22 83 19 46 33 44 20 -7 -32 l-50 -51 23 -15 c12 -9 22 -21 22 -29 0
-20 18 -26 42 -13 21 11 22 11 9 -5 -18 -22 -5 -34 20 -17 25 15 34 9 21 -15
-7 -13 -6 -26 4 -46 17 -32 30 -35 56 -11 16 14 18 14 18 0 0 -8 6 -17 12 -19
10 -4 10 -10 0 -33 -30 -66 16 -32 100 73 28 35 53 60 56 57 3 -3 -6 -18 -21
-33 -28 -29 -87 -138 -87 -161 0 -7 -14 -38 -31 -67 -17 -30 -28 -58 -24 -64
3 -5 0 -10 -8 -10 -8 0 -25 -15 -38 -34 -13 -19 -48 -62 -77 -97 -30 -35 -79
-94 -110 -132 -31 -37 -61 -67 -66 -67 -5 0 -37 -26 -71 -57 -33 -32 -93 -86
-133 -121 -39 -34 -77 -74 -84 -89 -7 -14 -21 -27 -31 -29 -10 -1 -27 -10 -36
-18 -10 -9 -21 -16 -25 -16 -4 0 -13 -6 -20 -12 -8 -7 -37 -33 -66 -58 -70
-60 -268 -258 -288 -288 -26 -39 -2 -49 62 -24 66 25 101 18 135 -28 16 -22
30 -30 52 -30 29 0 44 -12 103 -81 11 -13 27 -18 58 -17 32 2 52 -4 75 -21 43
-32 83 -25 198 35 127 66 204 123 321 239 100 99 258 300 285 362 10 25 20 33
39 33 14 0 31 5 38 12 9 9 12 8 12 -6 0 -25 18 -10 34 29 12 27 22 35 51 41
43 8 51 3 33 -25 -16 -26 -1 -56 29 -56 23 0 133 119 133 145 0 9 65 83 145
165 80 81 165 175 189 209 75 105 166 278 166 316 0 18 -3 21 -9 11 -7 -11 -9
-11 -14 0 -4 8 -4 -4 0 -25 4 -27 2 -37 -5 -32 -6 4 -9 13 -5 21 3 8 1 15 -5
15 -6 0 -13 -6 -15 -12 -4 -10 -6 -10 -6 0 -1 6 -6 12 -11 12 -6 0 -9 -3 -9
-7 4 -27 -3 -43 -20 -43 -11 0 -23 5 -26 10 -3 6 -17 7 -31 4 -24 -6 -84 12
-84 25 0 3 -15 6 -34 5 -29 -2 -40 5 -77 47 -23 27 -48 49 -55 49 -24 0 -25
21 -2 39 l23 19 -42 41 c-23 23 -38 43 -33 46 5 3 11 -1 13 -7 3 -7 6 -4 6 7
1 11 -8 28 -19 38 -11 9 -21 25 -21 34 -7 86 -6 88 34 98 21 6 27 4 27 -9 0
-9 5 -16 10 -16 16 0 12 32 -6 44 -11 8 -13 18 -7 34 5 13 12 23 16 23 22 -3
25 2 20 35 -4 25 -2 39 8 45 23 15 39 10 49 -13 8 -20 9 -21 9 -4 1 19 1 19
15 1 9 -12 19 -16 31 -11 17 6 17 8 4 22 -19 18 -13 74 7 74 8 0 14 6 15 13 0
6 4 2 9 -11 5 -12 7 -28 4 -35 -2 -7 7 -24 21 -37 14 -13 25 -20 25 -16 0 4
-10 16 -22 27 -20 16 -21 20 -8 29 11 7 19 4 32 -13 15 -19 20 -20 38 -9 17
10 25 11 36 1 8 -6 12 -14 9 -17 -6 -7 25 -42 37 -42 5 0 2 7 -6 16 -9 8 -16
24 -16 35 0 10 -5 19 -12 19 -6 0 -8 3 -5 7 4 3 -1 12 -11 19 -10 8 -12 13 -5
14 7 0 18 -9 25 -20 7 -11 31 -33 53 -48 49 -33 56 -42 49 -64 -3 -10 -1 -18
5 -18 17 0 13 -17 -5 -24 -12 -4 -15 -2 -10 9 3 8 2 15 -3 15 -4 0 -8 7 -8 15
0 8 5 11 11 8 6 -4 7 -2 3 3 -5 5 -12 9 -15 9 -4 0 -13 4 -19 8 -15 10 -17 -5
-3 -19 5 -5 11 -19 13 -31 1 -11 8 -27 14 -35 8 -10 7 -17 -5 -28 -14 -13 -15
-12 -9 3 4 11 3 16 -4 12 -5 -4 -17 -1 -25 6 -12 10 -13 9 -8 -5 3 -9 10 -16
14 -16 10 0 19 -50 13 -67 -3 -8 -12 -12 -19 -9 -12 5 -19 -12 -15 -36 0 -5
-3 -8 -9 -8 -5 0 -10 6 -10 13 0 8 -4 7 -10 -3 -7 -10 -5 -18 5 -26 8 -6 12
-14 9 -17 -4 -4 -15 5 -26 18 -20 26 -38 33 -38 15 0 -5 7 -10 15 -10 9 0 12
-6 9 -15 -4 -10 -14 -14 -28 -10 -11 3 -6 -2 12 -12 17 -9 32 -21 32 -25 0
-24 -23 -48 -45 -48 -13 0 -27 -5 -30 -11 -11 -17 3 -23 20 -9 13 11 18 10 30
-6 19 -25 19 -43 -2 -66 -15 -16 -15 -18 0 -18 9 0 21 -8 26 -17 6 -10 11 -13
11 -7 0 5 -5 15 -12 22 -17 17 6 64 27 56 10 -4 15 0 15 10 0 9 5 16 11 16 5
0 8 4 4 9 -3 6 4 15 15 21 18 10 19 14 8 27 -12 15 -11 15 11 4 19 -10 21 -15
10 -22 -12 -8 -12 -10 1 -18 9 -6 19 -6 26 0 9 7 14 5 18 -8 3 -10 3 0 0 22
-3 22 -11 46 -17 53 -17 21 -15 48 5 61 17 11 25 2 11 -13 -15 -14 -13 -46 3
-46 11 0 14 -6 9 -22 -5 -18 -4 -20 4 -8 14 19 14 53 1 45 -16 -10 -12 10 8
36 10 13 29 51 42 84 41 105 82 168 174 263 147 152 254 200 416 187 47 -4
127 -13 179 -21 93 -13 114 -12 95 5 -25 24 -144 48 -254 50 -63 1 -117 6
-120 9 -3 4 -15 13 -28 20 -19 10 -23 10 -28 -3 -4 -8 -11 -15 -18 -14 -6 1
-19 -1 -30 -6 -11 -5 -21 -3 -26 5 -5 8 -10 8 -14 2 -7 -12 -46 -4 -46 9 0 5
10 9 23 9 20 1 20 2 -7 16 -22 13 -26 18 -15 25 16 10 -1 12 -25 3 -13 -5 -14
-9 -5 -20 6 -8 16 -11 22 -7 7 4 8 0 4 -11 -4 -10 -7 -20 -7 -22 0 -2 -8 -4
-17 -4 -14 0 -15 2 -4 9 10 7 8 12 -10 25 l-24 17 24 18 23 18 -23 -2 c-14 -1
-25 -9 -27 -18 -5 -23 -17 -21 -19 3 -1 11 1 20 5 20 4 0 13 10 21 23 14 22
14 22 -8 3 -20 -18 -31 -10 -12 10 6 5 -1 9 -19 10 -16 1 -28 -2 -25 -5 2 -4
-5 -12 -16 -19 -10 -7 -19 -8 -19 -3 0 5 5 11 10 13 6 2 1 13 -10 26 -18 19
-27 21 -62 16 -28 -5 -39 -4 -34 4 3 5 0 13 -6 15 -10 4 -9 8 2 16 13 10 13
11 0 12 -25 2 -34 5 -61 16 -68 30 -307 -35 -309 -84 0 -6 -9 -18 -21 -26 -15
-11 -17 -16 -7 -20 10 -3 10 -7 1 -17 -13 -14 -37 -4 -27 11 8 14 -32 46 -93
74 -81 37 -219 25 -246 -21 -4 -8 -12 -14 -17 -14 -18 0 -45 -34 -75 -94 -28
-55 -30 -68 -30 -163 0 -61 -4 -103 -10 -103 -5 0 2 -11 17 -25 15 -14 29 -25
32 -25 14 0 75 -69 66 -75 -5 -3 -10 -15 -10 -26 0 -21 -8 -24 -30 -8 -11 8
-12 12 -2 16 17 7 5 23 -19 23 -12 0 -17 4 -14 11 4 6 13 8 21 5 8 -3 14 -3
14 0 0 11 -52 48 -113 82 -83 46 -110 66 -167 126 -35 37 -70 61 -115 81 -36
15 -65 30 -65 34 0 4 -23 18 -50 31 -27 13 -50 27 -50 32 0 4 -8 8 -17 9 -10
0 -38 16 -63 34 -25 19 -60 41 -79 50 -19 8 -44 27 -56 41 -15 17 -32 25 -56
26 -19 0 -54 13 -80 29 -25 16 -50 29 -55 29 -5 0 -33 16 -63 35 -29 19 -55
35 -58 35 -5 0 -75 41 -148 87 -32 20 -99 51 -107 50 -4 -1 -14 7 -22 18 -9
11 -16 16 -16 11 0 -5 -8 -2 -17 6 -20 17 -91 55 -243 128 -121 58 -142 72
-137 91 2 8 2 11 0 7 -8 -14 -23 -9 -23 7 0 8 -9 15 -20 15 -12 0 -31 6 -43
14 -46 30 -194 63 -284 64 -48 1 -94 -1 -100 -4z m402 -223 c98 -31 179 -62
190 -72 5 -5 17 -9 26 -9 9 0 23 -8 30 -17 12 -15 12 -16 -6 -9 -34 13 -118
36 -154 41 -19 3 -40 13 -47 23 -7 9 -14 13 -14 8 0 -5 -8 -2 -17 5 -11 10
-14 10 -9 2 4 -7 2 -13 -3 -13 -6 0 -11 4 -11 8 0 9 -38 30 -75 43 -50 17 34
8 90 -10z m185 -172 c114 -28 154 -41 300 -94 79 -29 119 -54 65 -40 -35 9
-51 12 -245 55 -80 18 -152 35 -160 38 -8 3 -21 4 -27 3 -7 -1 -13 5 -13 13 0
9 -6 13 -13 10 -7 -2 -22 4 -32 16 -10 11 -25 20 -34 20 -9 0 -23 5 -31 10
-23 15 56 3 190 -31z m61 -144 c187 -31 520 -122 534 -146 9 -13 -10 -11 -111
10 -49 10 -109 22 -134 25 -52 7 -85 13 -108 20 -34 10 -78 18 -100 17 -12 0
-25 6 -28 14 -4 8 -11 15 -16 15 -23 0 -118 32 -118 40 0 9 30 19 41 14 3 -2
21 -6 40 -9z m2345 -77 c5 -8 2 -9 -9 -5 -10 3 -17 2 -17 -4 0 -6 -5 -7 -11
-3 -8 4 -7 9 2 15 19 12 27 11 35 -3z m44 -19 c12 -9 11 -10 -6 -6 -12 2 -29
0 -38 -5 -10 -6 -16 -5 -16 1 0 8 12 14 40 20 3 0 12 -4 20 -10z m0 -29 c0 -5
-4 -10 -10 -10 -5 0 -10 5 -10 10 0 6 5 10 10 10 6 0 10 -4 10 -10z m110 -29
c0 -11 -5 -23 -12 -27 -6 -4 -8 -3 -4 4 10 16 -13 25 -29 12 -20 -17 -19 -5 1
14 21 22 44 20 44 -3z m-2095 -49 c88 -16 198 -39 245 -51 118 -31 117 -30
101 -40 -9 -6 -5 -10 16 -15 15 -4 28 -7 28 -7 0 0 18 -6 40 -13 22 -8 38 -18
35 -23 -3 -4 -9 -6 -15 -4 -5 1 -32 7 -60 11 -92 16 -106 21 -95 35 8 10 3 13
-22 14 -18 0 -94 9 -168 19 -74 11 -147 18 -162 17 -16 0 -28 2 -28 7 0 4 -12
7 -27 7 -63 1 -73 3 -73 12 0 5 -11 9 -23 9 -25 0 -82 42 -72 52 11 11 115 -1
280 -30z m1913 15 c24 6 72 -20 72 -39 0 -7 -7 -5 -17 4 -25 22 -55 29 -72 18
-10 -6 -19 -3 -28 8 -19 25 -16 37 5 19 11 -10 26 -14 40 -10z m-153 3 c3 -5
1 -10 -4 -10 -6 0 -11 5 -11 10 0 6 2 10 4 10 3 0 8 -4 11 -10z m415 -4 c0 -2
-7 -20 -15 -40 -9 -20 -13 -41 -10 -46 8 -13 -6 -12 -25 0 -11 7 -12 12 -3 18
8 5 7 12 -4 27 -10 14 -14 15 -13 5 6 -41 1 -50 -24 -40 -17 6 -26 5 -30 -3
-3 -9 -5 -9 -5 0 -1 6 5 18 12 25 8 7 12 18 10 24 -4 12 36 13 55 1 13 -9 46
16 35 27 -4 3 -1 6 5 6 7 0 12 -2 12 -4z m-1910 -28 c10 -6 4 -7 -20 -3 -19 3
-39 10 -45 16 -12 12 41 2 65 -13z m1580 6 c0 -8 4 -13 9 -10 10 6 25 -24 16
-32 -3 -3 -5 0 -5 6 0 6 -7 9 -15 6 -8 -4 -15 -13 -15 -21 0 -8 -5 -11 -10 -8
-8 5 -7 11 1 21 6 8 9 23 6 34 -3 11 -1 20 4 20 5 0 9 -7 9 -16z m98 -22 c2
-7 -6 -12 -17 -12 -12 0 -21 6 -21 14 0 17 32 15 38 -2z m107 9 c3 -5 1 -12
-4 -15 -5 -3 -11 1 -15 9 -6 16 9 21 19 6z m-1720 -11 c8 -13 -5 -13 -25 0
-13 8 -13 10 2 10 9 0 20 -4 23 -10z m1224 -20 c9 0 22 5 29 12 7 7 12 8 12 2
0 -6 -5 -15 -12 -22 -9 -9 -9 -12 1 -12 11 0 11 -3 1 -15 -15 -18 -35 -20 -24
-3 5 7 3 8 -6 3 -15 -9 -30 12 -29 40 0 11 3 14 6 8 2 -7 12 -13 22 -13z m244
-24 c-5 -7 -9 -5 -11 7 -2 9 -8 14 -14 11 -7 -4 -8 -2 -4 5 6 9 11 9 22 0 7
-6 11 -16 7 -23z m427 -12 c0 -9 -5 -13 -12 -10 -7 3 -21 9 -30 12 -10 4 -18
10 -18 15 0 5 7 5 17 2 11 -5 14 -3 8 6 -6 10 -3 11 14 2 11 -7 21 -19 21 -27z
m-329 -30 c13 -7 18 -13 10 -14 -20 0 -61 40 -61 59 1 11 5 8 14 -8 7 -13 24
-30 37 -37z m-171 21 c-7 -9 -15 -13 -19 -10 -3 3 1 10 9 15 21 14 24 12 10
-5z m25 -14 c-3 -6 -11 -11 -17 -11 -6 0 -6 6 2 15 14 17 26 13 15 -4z m-1605
-35 c47 -3 119 -11 160 -16 41 -6 100 -13 130 -16 77 -8 85 -11 71 -28 -9 -11
-7 -15 11 -20 13 -3 33 -6 46 -6 28 0 37 -21 22 -50 -9 -17 -8 -25 4 -39 21
-23 11 -31 -38 -31 l-41 0 30 20 30 20 -130 -6 c-189 -9 -193 -9 -201 -17 -4
-4 -13 -2 -21 4 -10 9 -18 8 -32 -5 -13 -11 -21 -14 -26 -7 -3 6 -1 11 4 11 6
0 11 4 11 9 0 4 -13 7 -30 5 -16 -2 -30 1 -30 6 0 5 -13 7 -30 4 -16 -4 -37
-3 -47 0 -34 14 8 24 122 31 120 7 222 28 244 49 11 12 9 15 -15 19 -16 3 -83
6 -149 7 -177 3 -195 4 -195 13 0 4 -13 6 -29 5 -16 -1 -36 4 -45 11 -8 7 -20
10 -27 6 -10 -7 -28 10 -29 27 0 9 110 15 130 7 8 -4 53 -9 100 -13z m1389 7
c-6 -7 -16 -10 -23 -8 -6 3 -4 0 5 -6 15 -11 13 -16 -12 -55 -16 -23 -29 -50
-29 -61 0 -28 -88 -109 -145 -132 -27 -12 -42 -15 -32 -7 21 16 23 30 3 23 -9
-4 -13 -1 -10 7 5 14 72 41 92 38 6 -2 12 1 12 6 0 12 -25 33 -32 27 -2 -3 -5
2 -5 10 0 10 14 17 40 22 38 6 39 7 34 40 -3 18 -2 31 3 28 5 -3 12 -1 15 5 4
6 15 8 25 5 22 -7 36 10 15 19 -8 3 -15 16 -15 28 0 19 6 23 35 24 27 0 32 -2
24 -13z m678 -9 c-3 -3 -12 -4 -19 -1 -8 3 -5 6 6 6 11 1 17 -2 13 -5z m-410
-10 c-3 -3 -12 -4 -19 -1 -8 3 -5 6 6 6 11 1 17 -2 13 -5z m33 -18 c0 -3 -4
-8 -10 -11 -5 -3 -10 -1 -10 4 0 6 5 11 10 11 6 0 10 -2 10 -4z m40 0 c0 -3
-4 -8 -10 -11 -5 -3 -10 -1 -10 4 0 6 5 11 10 11 6 0 10 -2 10 -4z m-75 -36
c3 -6 -1 -7 -9 -4 -18 7 -21 14 -7 14 6 0 13 -4 16 -10z m202 -6 c-3 -4 -2
-15 3 -25 7 -12 6 -20 -2 -25 -7 -4 -8 -3 -4 4 4 7 1 12 -8 12 -9 0 -16 4 -16
8 0 9 21 32 29 32 2 0 1 -3 -2 -6z m-237 -14 c0 -5 -8 -10 -17 -10 -15 0 -16
2 -3 10 19 12 20 12 20 0z m195 -10 c-3 -5 -11 -10 -16 -10 -6 0 -7 5 -4 10 3
6 11 10 16 10 6 0 7 -4 4 -10z m7 -42 c-9 -9 -12 -9 -12 0 0 7 -7 12 -15 12
-11 0 -14 -7 -9 -25 5 -19 2 -25 -10 -25 -9 0 -16 2 -16 4 0 2 -3 11 -6 20 -4
12 3 20 27 30 37 16 62 5 41 -16z m-185 0 c2 -17 0 -19 -7 -8 -5 8 -6 18 -4
22 8 12 10 10 11 -14z m60 6 c-3 -3 -12 -4 -19 -1 -8 3 -5 6 6 6 11 1 17 -2
13 -5z m208 -4 c-3 -5 -10 -10 -16 -10 -5 0 -9 5 -9 10 0 6 7 10 16 10 8 0 12
-4 9 -10z m-37 -28 c2 -14 -2 -22 -11 -22 -17 0 -26 19 -19 38 7 19 27 9 30
-16z m-164 6 c-5 -7 -3 -8 6 -3 16 10 31 -14 24 -37 -3 -10 -1 -18 5 -18 5 0
11 7 13 16 2 13 7 12 26 -7 17 -15 21 -24 13 -32 -8 -8 -14 -8 -23 1 -13 13
-32 16 -24 4 2 -4 1 -14 -3 -21 -6 -10 -16 -5 -40 18 -18 17 -29 36 -26 41 3
6 -1 7 -10 4 -20 -8 -16 16 5 33 19 16 43 17 34 1z m-124 -33 c10 -12 9 -15
-4 -15 -10 0 -15 4 -12 9 4 5 0 12 -6 14 -8 4 -9 6 -2 6 6 1 17 -6 24 -14z
m254 -2 c11 -26 -11 -40 -32 -20 -15 16 -15 19 -2 27 21 14 27 12 34 -7z
m-1180 -28 c6 -17 -22 -35 -69 -45 -21 -4 -31 -12 -33 -28 -4 -29 -43 -54 -97
-62 -55 -8 -51 -1 14 30 28 12 48 27 45 31 -2 5 -11 6 -19 2 -8 -3 -15 -1 -15
4 0 12 129 82 151 82 9 1 19 -6 23 -14z m-114 -5 c0 -5 -8 -10 -19 -10 -10 0
-36 -8 -57 -17 -22 -9 -64 -18 -94 -19 -30 -2 -75 -5 -100 -8 -25 -4 -62 -8
-84 -11 -21 -2 -44 -9 -52 -16 -18 -15 -37 -2 -21 16 6 7 14 13 17 12 10 -2
116 15 150 23 138 35 260 49 260 30z m1270 -18 c0 -10 -51 -35 -57 -28 -9 9 8
25 21 20 8 -3 17 -1 21 5 7 13 15 14 15 3z m-76 -187 c-4 -8 -7 -15 -9 -15 -2
0 -5 7 -9 15 -3 9 0 15 9 15 9 0 12 -6 9 -15z m-1134 -81 c-8 -8 -23 -20 -34
-26 -19 -10 -18 -8 3 16 26 27 53 37 31 10z m1090 -49 c0 -14 -5 -25 -11 -25
-6 0 -8 9 -4 21 5 16 4 19 -5 14 -9 -5 -11 -4 -6 3 12 20 26 13 26 -13z
m-1014 -59 c-7 -11 -20 -20 -30 -22 -10 -1 -26 -10 -37 -20 -24 -21 -25 -7 -2
26 29 41 55 59 69 46 10 -9 10 -15 0 -30z m974 -37 c0 -14 -17 -10 -23 5 -4
10 -1 13 9 9 7 -3 14 -9 14 -14z m-680 -73 c0 -3 -4 -8 -10 -11 -5 -3 -10 -1
-10 4 0 6 5 11 10 11 6 0 10 -2 10 -4z m-160 -86 c-6 -11 -12 -20 -14 -20 -2
0 -2 9 1 20 3 11 9 20 15 20 5 0 4 -9 -2 -20z m-250 -454 c0 -7 -9 -16 -20
-19 -25 -6 -26 8 -2 22 22 13 22 13 22 -3z m110 -16 c0 -5 -4 -10 -10 -10 -5
0 -10 5 -10 10 0 6 5 10 10 10 6 0 10 -4 10 -10z m-70 -13 c0 -8 -11 -24 -25
-37 -27 -25 -31 -18 -15 24 10 27 40 36 40 13z m463 -35 c-7 -2 -13 -8 -13
-13 0 -5 -5 -9 -10 -9 -6 0 -8 11 -4 28 10 42 15 46 28 20 9 -18 9 -24 -1 -26z
m-190 -82 c5 -21 0 -30 -19 -30 -8 0 -12 12 -12 29 1 32 23 33 31 1z m92 -19
c3 -5 1 -12 -5 -16 -5 -3 -10 -17 -10 -30 0 -13 -4 -26 -8 -29 -13 -8 -36 40
-28 59 5 15 9 15 23 4 15 -12 16 -12 10 4 -7 18 7 24 18 8z m196 -108 c-12
-20 -14 -14 -5 12 4 9 9 14 11 11 3 -2 0 -13 -6 -23z m-56 -43 c-11 -22 -20
-29 -27 -22 -7 7 -3 20 13 42 28 37 37 24 14 -20z m-240 -10 c3 -5 2 -10 -4
-10 -5 0 -13 5 -16 10 -3 6 -2 10 4 10 5 0 13 -4 16 -10z m-655 -15 c-7 -8
-17 -15 -23 -15 -6 0 -2 7 9 15 25 19 30 19 14 0z"/>
<path d="M2967 2673 c-12 -12 -7 -22 8 -17 8 4 15 10 15 15 0 11 -14 12 -23 2z"/>
<path d="M3360 3022 c0 -4 9 -8 19 -8 11 0 17 4 15 8 -3 4 -12 8 -20 8 -8 0
-14 -4 -14 -8z"/>
<path d="M3405 3000 c-3 -5 -1 -10 4 -10 6 0 11 5 11 10 0 6 -2 10 -4 10 -3 0
-8 -4 -11 -10z"/>
<path d="M3438 2993 c7 -3 16 -2 19 1 4 3 -2 6 -13 5 -11 0 -14 -3 -6 -6z"/>
<path d="M3516 2962 c-2 -4 4 -8 14 -8 10 0 16 4 14 8 -3 4 -9 8 -14 8 -5 0
-11 -4 -14 -8z"/>
<path d="M3459 2943 c-13 -16 -12 -17 4 -4 16 13 21 21 13 21 -2 0 -10 -8 -17
-17z"/>
<path d="M2814 2537 c10 -16 15 -32 11 -35 -3 -4 -10 0 -15 8 -5 8 -12 12 -15
8 -4 -3 4 -15 16 -27 25 -23 48 -29 30 -8 -17 22 -1 27 34 13 26 -11 32 -11
32 0 0 7 -4 11 -8 8 -9 -5 -43 12 -78 41 l-25 20 18 -28z"/>
<path d="M2920 2540 c-11 -7 -11 -10 -2 -10 7 0 11 -4 8 -9 -3 -5 0 -11 7 -14
8 -3 14 1 14 9 0 8 -4 14 -9 14 -5 0 -6 5 -3 10 8 12 4 12 -15 0z"/>
<path d="M2756 2477 c3 -10 9 -15 12 -12 3 3 0 11 -7 18 -10 9 -11 8 -5 -6z"/>
<path d="M2913 2426 c0 -8 4 -13 8 -10 4 2 10 -2 13 -8 3 -7 5 -4 3 6 -2 23
-24 33 -24 12z"/>
<path d="M2810 2371 c0 -10 19 -25 25 -20 1 2 -3 10 -11 17 -8 7 -14 8 -14 3z"/>
<path d="M2837 2265 c-18 -13 -18 -14 1 -24 22 -12 32 -6 32 21 0 21 -8 22
-33 3z"/>
<path d="M2961 2194 c0 -11 3 -14 6 -6 3 7 2 16 -1 19 -3 4 -6 -2 -5 -13z"/>
<path d="M2635 2180 c3 -5 8 -10 11 -10 2 0 4 5 4 10 0 6 -5 10 -11 10 -5 0
-7 -4 -4 -10z"/>
<path d="M2842 2169 c-12 -19 -11 -19 8 -9 11 6 18 15 15 21 -8 12 -8 12 -23
-12z"/>
<path d="M2982 2173 c-6 -2 -10 -9 -6 -14 8 -14 21 -11 21 6 0 8 -1 15 -1 14
-1 0 -7 -3 -14 -6z"/>
<path d="M2906 2135 c8 -35 34 -70 34 -45 0 8 -9 29 -20 45 l-21 30 7 -30z"/>
<path d="M2997 2133 c-2 -4 -1 -17 3 -27 6 -19 7 -19 14 -1 7 19 -8 44 -17 28z"/>
<path d="M2858 2095 c-4 -4 -4 -14 -1 -23 5 -10 3 -13 -6 -8 -10 6 -10 4 0
-12 13 -21 59 -37 59 -21 0 5 -7 9 -15 9 -8 0 -18 14 -22 31 -5 17 -11 27 -15
24z"/>
</g>
</svg>
